<!-- icon666.com - MILLIONS vector ICONS FREE --><svg viewBox="0 0 32 32" xmlns="http://www.w3.org/2000/svg"><g id="comment"><path d="m30 28.71-1.8-5.86a14 14 0 1 0 -4.76 5l5.19 2.08a1 1 0 0 0 1-.19 1 1 0 0 0 .37-1.03zm-3.84-5.71 1.29 4.3-3.75-1.5a1 1 0 0 0 -.93.11 12.1 12.1 0 1 1 3.49-3.71 1 1 0 0 0 -.1.8z" fill="#000000" style="fill: rgb(255, 255, 255);"></path><circle cx="16" cy="16" r="2" fill="#000000" style="fill: rgb(255, 255, 255);"></circle><circle cx="23" cy="16" r="2" fill="#000000" style="fill: rgb(255, 255, 255);"></circle><circle cx="9" cy="16" r="2" fill="#000000" style="fill: rgb(255, 255, 255);"></circle></g></svg>