<!-- icon666.com - MILLIONS vector ICONS FREE --><svg viewBox="0 0 152 152" xmlns="http://www.w3.org/2000/svg"><g id="Layer_2" data-name="Layer 2"><g id="Color_Icon" data-name="Color Icon"><g id="_21.Odnoklassniki" data-name="21.Odnoklassniki"><rect id="Background" fill="#ff9800" height="152" rx="12" width="152"></rect><g id="Icon" fill="#fff"><path d="m76 36a20.18 20.18 0 1 0 20.18 20.18 20.17 20.17 0 0 0 -20.18-20.18zm0 30.24a10.06 10.06 0 1 1 10.06-10.06 10.05 10.05 0 0 1 -10.06 10.06z"></path><path d="m105.74 79.45a6.84 6.84 0 0 0 -9.32-2.62c-13.74 7.7-27.1 7.7-40.84 0a6.85 6.85 0 0 0 -6.7 12 60.93 60.93 0 0 0 14.33 5.87l-9.72 9.72a6.81 6.81 0 0 0 0 9.63 6.81 6.81 0 0 0 9.63 0l12.88-12.93 12.88 12.88a6.81 6.81 0 0 0 9.63 0 6.81 6.81 0 0 0 0-9.63l-9.72-9.72a60.93 60.93 0 0 0 14.33-5.87 6.84 6.84 0 0 0 2.62-9.33z"></path></g></g></g></g></svg>