<!-- icon666.com - MILLIONS vector ICONS FREE --><svg viewBox="0 0 152 152" xmlns="http://www.w3.org/2000/svg" xmlns:xlink="http://www.w3.org/1999/xlink"><linearGradient id="linear-gradient" gradientUnits="userSpaceOnUse" x1="46.42" x2="47.01" y1="51.38" y2="51.97"><stop offset="0" stop-color="#0d47a1"></stop><stop offset="1" stop-color="#0d47a1" stop-opacity="0"></stop></linearGradient><linearGradient id="linear-gradient-2" x1="82.89" x2="83.44" xlink:href="#linear-gradient" y1="49.54" y2="50.09"></linearGradient><linearGradient id="linear-gradient-3" x1="60.25" x2="65.8" xlink:href="#linear-gradient" y1="51.47" y2="57.02"></linearGradient><linearGradient id="linear-gradient-4" x1="44.71" x2="64.61" xlink:href="#linear-gradient" y1="54.27" y2="74.17"></linearGradient><linearGradient id="linear-gradient-5" x1="82.81" x2="82.88" xlink:href="#linear-gradient" y1="49.49" y2="49.55"></linearGradient><linearGradient id="linear-gradient-6" x1="77.81" x2="92.66" xlink:href="#linear-gradient" y1="55.72" y2="70.57"></linearGradient><linearGradient id="linear-gradient-7" x1="80.48" x2="156.19" xlink:href="#linear-gradient" y1="65.08" y2="140.78"></linearGradient><g id="Layer_2" data-name="Layer 2"><g id="Color_Icon" data-name="Color Icon"><g id="_22.VK" data-name="22.VK"><g id="Background"><path d="m140 0h-128a12 12 0 0 0 -12 12v128a12 12 0 0 0 12 12h128a12 12 0 0 0 12-12v-128a12 12 0 0 0 -12-12z" fill="#4c75a3"></path></g><path d="m47 52-.59-.59a3.29 3.29 0 0 1 .59.59z" fill="url(#linear-gradient)" fill-rule="evenodd"></path><path d="m83.43 50.1-.55-.55a2.61 2.61 0 0 1 .55.55z" fill="url(#linear-gradient-2)" fill-rule="evenodd"></path><path d="m65.24 57.58-5.55-5.58a6.61 6.61 0 0 1 4.36 2.19 8.24 8.24 0 0 1 1.19 3.39z" fill="url(#linear-gradient-3)"></path><path d="m52.9 64a94.08 94.08 0 0 1 -5.27-11 4.74 4.74 0 0 0 -.63-1l18.35 18.33c-.28 2.32-.84 4.31-1.87 4.88-1.99 1.08-4.72-1.13-10.58-11.21z" fill="url(#linear-gradient-4)"></path><path d="m82.88 49.55s0 0-.07-.06z" fill="url(#linear-gradient-5)"></path><path d="m83.43 50.1 13.32 13.32-.39.66c-6.58 11.16-9.2 11.75-10.28 11.06-2.5-1.61-1.87-6.49-1.87-10 0-8.25.97-12.84-.78-15.04z" fill="url(#linear-gradient-6)"></path><path d="m152 79.11v60.89a12 12 0 0 1 -12 12h-30.07l-58.19-58.18c11.11 10.67 23.21 10 23.21 10h5.86a5 5 0 0 0 2.68-1.17 4.34 4.34 0 0 0 .81-2.65s-.12-7.87 3.54-9 8.22 7.6 13.13 11c3.7 2.55 6.52 2 6.52 2l13.11-.18s6.86-.43 3.61-5.82c-.27-.44-1.9-4-9.75-11.28-8.22-7.63-7.12-6.39 2.78-19.59 6-8 8.44-12.94 7.69-15z" fill="url(#linear-gradient-7)"></path><path d="m75 103.77h5.86a5 5 0 0 0 2.68-1.17 4.34 4.34 0 0 0 .76-2.6s-.12-7.87 3.54-9 8.22 7.6 13.13 11c3.7 2.55 6.52 2 6.52 2l13.11-.18s6.86-.43 3.61-5.82c-.27-.44-1.9-4-9.75-11.28-8.22-7.63-7.12-6.39 2.78-19.59 6-8 8.44-12.94 7.69-15s-5.15-1.48-5.15-1.48l-14.76.1a3.38 3.38 0 0 0 -1.91.33 4.18 4.18 0 0 0 -1.3 1.59 85.71 85.71 0 0 1 -5.45 11.5c-6.58 11.16-9.2 11.75-10.28 11.06-2.5-1.61-1.87-6.49-1.87-10 0-10.82 1.64-15.32-3.2-16.49a24.94 24.94 0 0 0 -6.89-.74c-5.26 0-9.72 0-12.24 1.26-1.68.82-3 2.65-2.19 2.76a6.61 6.61 0 0 1 4.36 2.19c1.51 2.05 1.46 6.68 1.46 6.68s.86 12.73-2 14.31c-2 1.08-4.72-1.13-10.58-11.26a94.08 94.08 0 0 1 -5.3-10.94 4.38 4.38 0 0 0 -1.22-1.64 4.33 4.33 0 0 0 -.75-.44 5.65 5.65 0 0 0 -2.4-.47l-13.14.09s-2.11 0-2.88 1-.06 2.5-.06 2.5 11 25.69 23.42 38.64c11.4 11.86 24.4 11.09 24.4 11.09z" fill="#fff" fill-rule="evenodd"></path></g></g></g></svg>